<svg xmlns="http://www.w3.org/2000/svg" viewBox="0 0 1091.3385826771655 1543.464566929134">
<title>Provisional reconstruction of freehand coordinates; black uniform width</title>
<polyline points="725.156448,245.183448 723.811357,245.377875 722.602723,245.626449 720.318017,245.901862 717.276940,246.109648 713.534076,246.217295 709.159603,246.266773 704.169118,246.262221 699.026578,246.194477 692.893740,246.022396 685.907060,245.721919 678.569487,245.319115 670.608103,244.907385 662.030706,244.543834 652.907475,244.259968 643.324183,244.016063 632.945533,243.773636 622.079531,243.504135 610.710581,243.257570 598.768505,243.079223 586.354673,243.006099 573.780989,243.036601 560.564000,243.120898 547.050701,243.218732 533.502312,243.274063 519.497763,243.205963 505.235891,243.028798 491.293722,242.792460 480.053433,242.571728 473.058956,242.445933 469.647491,242.392731" fill="none" stroke="black" stroke-width="0.25984252355699466"/>
</svg>
